<svg width="72" height="72" viewBox="0 0 72 72" fill="none" xmlns="http://www.w3.org/2000/svg">
<rect width="72" height="72" rx="16" fill="#00BFA8"/>
<path d="M33.1453 56.1014C25.0765 56.1014 19.5624 54.5179 16.2887 51.2597C13.2541 48.2406 12.101 45.5106 12.8607 43.144C13.5678 40.9406 15.881 39.6293 17.8592 39.3065C21.5895 38.6983 23.6031 37.0759 23.6031 35.8584C23.6031 34.9055 23.3624 34.2386 22.8668 33.8214C22.081 33.1599 20.5552 33.0201 18.331 33.4043C18.1703 33.4319 17.999 33.4645 17.8198 33.4971C16.1959 33.7991 13.9732 34.2125 12.4185 33.1284C11.6459 32.5896 11.1609 31.7636 10.9752 30.6742C10.541 28.1234 11.3072 25.7697 13.1899 23.8688C15.3394 21.6995 18.1741 20.0482 21.6168 18.9631C24.9181 17.9207 28.7977 17.3926 33.1461 17.3926C37.4948 17.3926 41.7598 18.2584 45.5795 19.8967C46.0437 20.0953 46.2597 20.6341 46.0596 21.0983C45.8607 21.5624 45.3219 21.778 44.8581 21.5779C41.2649 20.0365 37.214 19.2219 33.1463 19.2219C24.7873 19.2219 18.3365 21.2733 14.4914 25.1552C13.0205 26.6404 12.4449 28.3941 12.7798 30.3659C12.8818 30.9619 13.1053 31.3738 13.466 31.6261C14.3917 32.2722 16.1794 31.9399 17.4855 31.697C17.6723 31.6614 17.8515 31.6288 18.019 31.6C20.8392 31.1123 22.811 31.3802 24.0466 32.4199C24.967 33.1952 25.4349 34.3523 25.4349 35.8574C25.4349 38.2907 22.509 40.4023 18.155 41.1124C16.7727 41.3371 15.073 42.2446 14.605 43.7022C14.0806 45.3379 15.1097 47.5019 17.5809 49.9613C20.4951 52.8603 25.5868 54.2695 33.1465 54.2695C46.4703 54.2695 57.31 46.6103 57.31 37.1946C57.31 33.8175 56.4158 31.1803 54.4978 28.8958C54.1723 28.509 54.2231 27.9308 54.6103 27.6068C54.9972 27.2809 55.575 27.3321 55.8994 27.719C58.1118 30.3523 59.1409 33.3624 59.1409 37.1946C59.1409 42.303 56.3961 47.0847 51.4131 50.6592C46.5218 54.167 40.0351 56.0999 33.1462 56.0999L33.1453 56.1014Z" fill="white"/>
<path d="M29.5178 50.5538C28.1125 50.5538 26.7802 50.1696 25.764 49.4728C24.6606 48.7142 24.0264 47.629 24.0264 46.4968C24.0264 44.3223 25.9853 42.5964 28.685 42.3936C29.1912 42.3546 29.6292 42.7335 29.6671 43.2371C29.705 43.7403 29.3272 44.1809 28.8236 44.2188C27.1057 44.3484 25.8584 45.3067 25.8584 46.4967C25.8584 47.6865 27.5346 48.7232 29.5179 48.7232C31.5014 48.7232 33.1701 47.8301 33.1701 46.6915C33.1701 46.1853 33.5793 45.7761 34.0851 45.7761C34.5914 45.7761 35.0006 46.1853 35.0006 46.6915C35.0006 48.8933 32.6442 50.5536 29.5179 50.5536L29.5178 50.5538Z" fill="white"/>
<path d="M23.6374 29.5983C20.8456 29.5983 18.6582 27.9706 18.6582 25.8931C18.6582 23.8151 20.8456 22.1874 23.6374 22.1874C26.4287 22.1874 28.6162 23.8151 28.6162 25.8931C28.6162 27.9706 26.4287 29.5983 23.6374 29.5983V29.5983ZM23.6374 24.0167C21.9596 24.0167 20.4887 24.8927 20.4887 25.8915C20.4887 26.8907 21.9596 27.7667 23.6374 27.7667C25.3148 27.7667 26.7857 26.8907 26.7857 25.8915C26.7857 24.8927 25.3148 24.0167 23.6374 24.0167Z" fill="white"/>
<path d="M35.8592 28.8735C33.0678 28.8735 30.8804 27.2457 30.8804 25.1682C30.8804 23.0907 33.0678 21.4625 35.8592 21.4625C38.6509 21.4625 40.8383 23.0907 40.8383 25.1682C40.8383 27.2457 38.6509 28.8735 35.8592 28.8735V28.8735ZM35.8592 23.2918C34.1818 23.2918 32.7108 24.1679 32.7108 25.1666C32.7108 26.1658 34.1818 27.0418 35.8592 27.0418C37.537 27.0418 39.0079 26.1658 39.0079 25.1666C39.0079 24.1678 37.537 23.2918 35.8592 23.2918Z" fill="white"/>
<path d="M50.2453 40.9194C47.4535 40.9194 45.2661 39.2916 45.2661 37.2137C45.2661 35.1362 47.4535 33.5084 50.2453 33.5084C53.0366 33.5084 55.2241 35.1362 55.2241 37.2137C55.2241 39.2916 53.0366 40.9194 50.2453 40.9194V40.9194ZM50.2453 35.3373C48.5675 35.3373 47.0966 36.2138 47.0966 37.2125C47.0966 38.2113 48.5675 39.0874 50.2453 39.0874C51.9227 39.0874 53.3936 38.2113 53.3936 37.2125C53.3936 36.2137 51.9227 35.3373 50.2453 35.3373V35.3373Z" fill="white"/>
<path d="M43.4446 49.3019C40.6533 49.3019 38.4658 47.6738 38.4658 45.5963C38.4658 43.5187 40.6533 41.891 43.4446 41.891C46.2364 41.891 48.4238 43.5187 48.4238 45.5963C48.4238 47.6738 46.2364 49.3019 43.4446 49.3019V49.3019ZM43.4446 43.7199C41.7672 43.7199 40.2963 44.5959 40.2963 45.5951C40.2963 46.5939 41.7672 47.4699 43.4446 47.4699C45.1224 47.4699 46.5933 46.5939 46.5933 45.5951C46.5933 44.5959 45.1224 43.7199 43.4446 43.7199Z" fill="white"/>
<path d="M25.1021 48.2404C24.8854 48.2404 24.6667 48.1631 24.4917 48.0078C24.1151 47.6702 24.0836 47.0923 24.4197 46.7157C35.8656 33.9322 42.3656 27.4991 44.8759 26.4739C45.3442 26.2829 45.8789 26.5064 46.0699 26.9748C46.2605 27.4427 46.0369 27.9778 45.569 28.1684C42.8507 29.2801 33.3102 39.5319 25.7849 47.9369C25.6042 48.1384 25.3534 48.2415 25.1022 48.2415L25.1021 48.2404Z" fill="white"/>
<path d="M21.7623 60.0003C20.9022 60.0003 20.1489 59.6551 19.4192 59.1201C18.725 58.6116 17.9915 57.941 17.8217 56.8308C17.6372 55.6213 18.1771 54.208 19.5226 52.3828C19.8219 51.9759 20.396 51.8899 20.8025 52.1892C21.2094 52.4901 21.2955 53.0626 20.9961 53.4691C19.7381 55.1742 19.5594 56.0866 19.6309 56.5534C19.6874 56.9251 19.9238 57.2203 20.5021 57.6427C21.3493 58.2637 22.5088 59.1136 26.3701 54.7623C26.7047 54.3846 27.2841 54.3489 27.6618 54.685C28.0395 55.0211 28.0748 55.599 27.7391 55.9771C25.1133 58.9371 23.2725 59.9988 21.7637 59.9988L21.7623 60.0003Z" fill="white"/>
<path d="M31.8156 50.1304C31.5985 50.1304 31.3813 50.0535 31.2063 49.8978C30.8297 49.5617 30.7956 48.9827 31.1332 48.6062C32.157 47.4581 33.2486 46.2513 34.4047 44.974C39.6854 39.1358 46.257 31.8713 46.9603 29.4066C47.099 28.92 47.6048 28.6389 48.0913 28.7776C48.5778 28.9163 48.859 29.4221 48.7203 29.9086C47.9594 32.5772 42.8693 38.3445 35.7612 46.2026C34.6081 47.4776 33.5177 48.6818 32.4976 49.8257C32.3172 50.0284 32.0664 50.1318 31.8152 50.1318L31.8156 50.1304Z" fill="white"/>
<path d="M50.4993 31.1349C49.1447 31.1349 47.4987 30.6783 45.7872 29.1434C44.5815 28.0635 43.8025 26.3153 43.7017 24.4677C43.6154 22.8623 44.0481 21.4422 44.9214 20.4722C46.2172 19.0301 49.1068 18.1473 50.7126 17.7498C52.0004 17.4308 52.1168 15.0551 52.16 14.1609C52.1846 13.6444 52.2134 13.0587 52.8451 12.8521C53.2149 12.7317 53.6124 12.8521 53.8598 13.1568C54.0454 13.3868 54.6585 14.157 55.0196 14.6629C57.7992 18.5607 58.6386 22.2505 57.5154 25.6306C56.8171 27.7332 54.8676 30.1874 52.0854 30.9262C51.625 31.049 51.0889 31.1354 50.4992 31.1354L50.4993 31.1349ZM47.0085 27.7812C48.4937 29.112 50.0431 29.575 51.6148 29.1567C53.7265 28.5955 55.2523 26.6359 55.7778 25.0525C56.6853 22.3236 56.0366 19.3923 53.7931 16.1039C53.5248 17.5081 52.8648 19.1017 51.1518 19.5253C48.8348 20.0994 46.9691 20.931 46.2814 21.6945C45.7441 22.2936 45.4694 23.2678 45.5285 24.3684C45.6016 25.7204 46.1677 27.0268 47.0069 27.7785L47.0085 27.7812Z" fill="white"/>
<path d="M40.8226 40.0864C40.6161 40.0864 40.4096 40.0174 40.2383 39.8761L35.6058 36.0305C35.2175 35.7077 35.1637 35.131 35.4857 34.7415C35.8086 34.3516 36.3852 34.2982 36.7748 34.621L41.4073 38.4666C41.7956 38.7894 41.8491 39.3661 41.5274 39.7556C41.347 39.9742 41.0856 40.0864 40.8226 40.0864V40.0864Z" fill="white"/>
<path d="M50.6908 28.1648C50.4373 28.1648 50.177 28.1462 49.9076 28.1083C49.4067 28.0378 49.0592 27.5748 49.1297 27.0743C49.2002 26.5734 49.6632 26.2255 50.1637 26.2964C51.9616 26.5499 53.0942 25.4583 53.5322 23.0495C53.6224 22.5528 54.0971 22.222 54.5966 22.3122C55.0933 22.4024 55.4241 22.8798 55.3324 23.3766C54.7716 26.4597 53.0992 28.1647 50.6908 28.1647L50.6908 28.1648Z" fill="white"/>
</svg>
