<svg width="72" height="72" viewBox="0 0 72 72" fill="none" xmlns="http://www.w3.org/2000/svg">
<rect width="72" height="72" rx="16" fill="#2A63C7"/>
<path d="M47.8864 42.4959C47.8864 42.0107 47.4931 41.6174 47.0079 41.6174H41.7385C41.2533 41.6174 40.8604 42.0107 40.8604 42.4959C40.8604 42.9811 41.2533 43.374 41.7385 43.374H47.0079C47.4931 43.374 47.8864 42.9811 47.8864 42.4959Z" fill="white"/>
<path d="M44.3748 19.6612V15.2698C44.3748 14.785 43.9815 14.3917 43.4967 14.3917C43.0115 14.3917 42.6182 14.785 42.6182 15.2698V19.6612C42.6214 20.8252 43.085 21.9402 43.908 22.7632C44.731 23.5861 45.8459 24.0497 47.0095 24.0525H54.9142V40.7397C54.9142 41.2249 55.3075 41.6178 55.7923 41.6178C56.2775 41.6178 56.6708 41.2249 56.6708 40.7397V23.1743C56.6708 22.6891 56.2775 22.2962 55.7923 22.2962H47.0096C46.3116 22.2945 45.6422 22.0164 45.1484 21.5226C44.6545 21.0288 44.3764 20.3594 44.3748 19.661L44.3748 19.6612Z" fill="white"/>
<path d="M47.0082 31.0785H39.9821C39.4973 31.0785 39.104 31.4714 39.104 31.9566C39.104 32.4418 39.4973 32.8347 39.9821 32.8347H47.0082C47.4934 32.8347 47.8867 32.4418 47.8867 31.9566C47.8867 31.4714 47.4934 31.0785 47.0082 31.0785Z" fill="white"/>
<path d="M37.3478 31.9566C37.3478 31.4714 36.9545 31.0785 36.4697 31.0785H31.1999C30.7151 31.0785 30.3218 31.4714 30.3218 31.9566C30.3218 32.4418 30.7151 32.8347 31.1999 32.8347H36.4697C36.9545 32.8347 37.3478 32.4418 37.3478 31.9566Z" fill="white"/>
<path d="M31.1999 36.3479C30.7151 36.3479 30.3218 36.7412 30.3218 37.226C30.3218 37.7112 30.7151 38.1045 31.1999 38.1045H32.9565C33.4417 38.1045 33.8346 37.7112 33.8346 37.226C33.8346 36.7412 33.4417 36.3479 32.9565 36.3479H31.1999Z" fill="white"/>
<path d="M31.1999 27.5653H39.9826C40.4678 27.5653 40.8611 27.172 40.8611 26.6872C40.8611 26.202 40.4678 25.8087 39.9826 25.8087H31.1999C30.7151 25.8087 30.3218 26.202 30.3218 26.6872C30.3218 27.172 30.7151 27.5653 31.1999 27.5653Z" fill="white"/>
<path d="M36.4703 38.1045H45.253C45.7378 38.1045 46.1311 37.7112 46.1311 37.226C46.1311 36.7412 45.7378 36.3479 45.253 36.3479H36.4703C35.9851 36.3479 35.5918 36.7412 35.5918 37.226C35.5918 37.7112 35.9851 38.1045 36.4703 38.1045Z" fill="white"/>
<path d="M41.7385 46.8872C41.2533 46.8872 40.8604 47.2805 40.8604 47.7653C40.8604 48.2505 41.2533 48.6438 41.7385 48.6438H43.4951C43.9799 48.6438 44.3732 48.2505 44.3732 47.7653C44.3732 47.2805 43.9799 46.8872 43.4951 46.8872H41.7385Z" fill="white"/>
<path d="M38.226 41.6182H31.1999C30.7151 41.6182 30.3218 42.0115 30.3218 42.4967C30.3218 42.9819 30.7151 43.3748 31.1999 43.3748H38.226C38.7112 43.3748 39.1045 42.9819 39.1045 42.4967C39.1045 42.0115 38.7112 41.6182 38.226 41.6182Z" fill="white"/>
<path d="M38.226 46.8872H31.1999C30.7151 46.8872 30.3218 47.2805 30.3218 47.7653C30.3218 48.2505 30.7151 48.6438 31.1999 48.6438H38.226C38.7112 48.6438 39.1045 48.2505 39.1045 47.7653C39.1045 47.2805 38.7112 46.8872 38.226 46.8872Z" fill="white"/>
<path d="M59.1403 46.1738L57.3837 44.4171C56.7612 43.7718 55.9031 43.4071 55.0063 43.4071C54.1098 43.4071 53.2517 43.7718 52.6293 44.4171L41.1177 55.9288C40.9531 56.0934 40.8604 56.3164 40.8604 56.5492V61.819C40.8632 62.3026 41.2549 62.6939 41.7385 62.6971H47.0079C47.2411 62.6971 47.4641 62.6044 47.6287 62.4394L59.1403 50.9288C59.8093 50.3194 60.1908 49.4565 60.1908 48.5514C60.1908 47.6468 59.8093 46.7834 59.1403 46.1744V46.1738ZM51.4934 48.0358L52.8869 49.4294L45.2751 57.0411L43.8583 55.6709L51.4934 48.0358ZM42.6171 60.9172L42.6167 56.9121L46.6449 60.9404L42.6171 60.9172ZM47.8865 59.6698L46.493 58.3056L54.1048 50.6939L55.4983 52.0874L47.8865 59.6698ZM57.899 49.6635L56.7628 50.8287L52.7346 46.8005L53.8704 45.6585C54.155 45.3281 54.57 45.1378 55.0062 45.1378C55.4428 45.1378 55.8573 45.3281 56.1424 45.6585L57.899 47.4152H57.8986C58.2352 47.6966 58.4292 48.1128 58.4292 48.551C58.4292 48.9896 58.2352 49.4054 57.8986 49.6868L57.899 49.6635Z" fill="white"/>
<path d="M38.2262 60.9398H15.3911C14.6927 60.9382 14.0237 60.6604 13.5299 60.1667C13.0357 59.6729 12.758 59.0035 12.7564 58.305V14.3914C12.758 13.693 13.0357 13.0241 13.5299 12.5302C14.0237 12.0364 14.6927 11.7583 15.3911 11.7567H43.133L51.658 20.2817C52.0023 20.6211 52.5553 20.6211 52.8992 20.2817C53.0654 20.1179 53.1585 19.8945 53.1585 19.6609C53.1585 19.4277 53.0654 19.2043 52.8992 19.0405L44.1165 10.2578C43.9535 10.0907 43.7293 9.99759 43.4961 10H15.3914C14.2273 10.0017 13.1111 10.4648 12.2877 11.2878C11.4647 12.1111 11.0016 13.2274 11 14.3914V58.305C11.0033 59.4686 11.4668 60.584 12.2898 61.407C13.1124 62.2295 14.2278 62.6935 15.3914 62.6964H38.2264C38.7116 62.6964 39.1049 62.3031 39.1049 61.8183C39.1049 61.3331 38.7116 60.9397 38.2264 60.9397L38.2262 60.9398Z" fill="white"/>
<path d="M38.226 52.1573H31.1999C30.7151 52.1573 30.3218 52.5507 30.3218 53.0359C30.3218 53.5207 30.7151 53.914 31.1999 53.914H38.226C38.7112 53.914 39.1045 53.5207 39.1045 53.0359C39.1045 52.5507 38.7112 52.1573 38.226 52.1573Z" fill="white"/>
<path d="M26.8088 26.6872C26.8088 26.202 26.4155 25.8087 25.9307 25.8087H20.6608C20.176 25.8087 19.7827 26.202 19.7827 26.6872V31.9566C19.786 32.4402 20.1772 32.8319 20.6608 32.8348H25.9307C26.4155 32.8348 26.8088 32.4419 26.8088 31.9566V26.6872ZM25.0521 31.0786H21.5388V27.5653H25.0521V31.0786Z" fill="white"/>
<path d="M20.6608 43.3748H25.9307C26.4155 43.3748 26.8088 42.9819 26.8088 42.4967V37.2269C26.8088 36.7421 26.4155 36.3488 25.9307 36.3488H20.6608C20.176 36.3488 19.7827 36.7421 19.7827 37.2269V42.4967C19.786 42.9803 20.1772 43.3715 20.6608 43.3748ZM21.5389 38.1054H25.0522V41.6187H21.5389V38.1054Z" fill="white"/>
<path d="M21.7964 53.6568C21.9614 53.8206 22.1844 53.9129 22.4168 53.9145H22.5046C22.7668 53.8896 23.0033 53.7475 23.1487 53.5282L26.662 48.2588V48.2583C26.9336 47.8495 26.8221 47.2977 26.4132 47.0262C26.004 46.7545 25.4522 46.8656 25.1806 47.2749L22.2531 51.6544L21.252 50.6591H21.2516C21.0878 50.4933 20.8644 50.3998 20.6312 50.3998C20.398 50.3998 20.1742 50.4933 20.0104 50.6591C19.671 51.0034 19.671 51.5564 20.0104 51.9003L21.7964 53.6568Z" fill="white"/>
</svg>
