<svg width="72" height="72" viewBox="0 0 72 72" fill="none" xmlns="http://www.w3.org/2000/svg">
<rect width="72" height="72" rx="16" fill="#2B98BA"/>
<path d="M61.129 22.6815C61.508 22.9689 61.6138 23.5575 61.3662 23.9957C61.1183 24.4343 60.6096 24.5559 60.2303 24.2703C52.5494 18.4516 43.1526 18.448 35.7087 24.263C31.2835 27.7179 26.9165 29.4447 22.5461 29.4456C18.1754 29.4456 13.802 27.7179 9.36307 24.2639C8.98731 23.971 8.8874 23.3811 9.14056 22.9465C9.39333 22.5106 9.90283 22.395 10.2786 22.6879C18.5393 29.1175 26.5574 29.1185 34.791 22.6888C42.7938 16.4396 52.8856 16.4369 61.1295 22.6815L61.129 22.6815ZM34.7905 35.1852C35.708 34.5163 36.495 36.1544 35.7081 36.7594C31.2271 40.2052 26.917 41.9421 22.5465 41.9421C18.1762 41.9434 13.8021 40.2153 9.36244 36.7603C8.98668 36.4674 8.88676 35.878 9.13993 35.4429C9.3927 35.0084 9.9022 34.8914 10.278 35.1843C18.5412 41.6167 26.0452 41.5591 34.7904 35.1852L34.7905 35.1852ZM34.7905 48.2434C35.708 47.5744 36.495 49.2121 35.7081 49.8171C31.2271 53.2629 26.917 55.0002 22.5465 55.0002C18.1762 55.0012 13.8021 53.273 9.36244 49.8185C8.98668 49.5251 8.88676 48.9357 9.13993 48.5011C9.3927 48.0661 9.9022 47.9496 10.278 48.2425C18.5412 54.6748 26.0452 54.6168 34.7904 48.2434L34.7905 48.2434Z" fill="white"/>
<path d="M39.187 47.8298C36.5292 47.8298 34.3745 45.3563 34.3745 42.3053C34.3745 39.2538 36.5292 36.7808 39.187 36.7808C41.8448 36.7808 43.9995 39.2538 43.9995 42.3053C43.9995 45.3563 41.8448 47.8298 39.187 47.8298ZM39.187 45.8206C40.8784 45.8206 42.2493 44.2469 42.2493 42.3053C42.2493 40.3632 40.8784 38.7896 39.187 38.7896C37.4957 38.7896 36.1244 40.3632 36.1244 42.3053C36.1244 44.2469 37.4957 45.8206 39.187 45.8206ZM55.3741 28.7676V46.8243C55.3741 46.9833 55.3422 47.1331 55.2849 47.267C55.3434 47.6111 55.3741 47.9671 55.3741 48.3313C55.3741 51.3823 53.2194 53.8557 50.5616 53.8557C47.9038 53.8557 45.7491 51.3823 45.7491 48.3313C45.7491 45.2803 47.9038 42.8068 50.5616 42.8068C51.7251 42.8068 52.7923 43.2806 53.6242 44.0693V29.3875L43.9993 24.2875V40.7977C43.9993 41.3524 43.6076 41.802 43.1244 41.802C42.6412 41.802 42.2491 41.3524 42.2491 40.7977V22.7387C42.2483 22.6949 42.2503 22.6505 42.2543 22.6062C42.2845 22.2992 42.4334 22.0351 42.6467 21.8751C42.8243 21.7472 43.0229 21.6933 43.2211 21.7188C43.3238 21.7321 43.4202 21.765 43.5077 21.8143L54.8483 27.8222C55.0064 27.9012 55.1401 28.0319 55.2333 28.196C55.3312 28.3746 55.3785 28.5688 55.3746 28.7667L55.3741 28.7676ZM50.5616 51.8473C52.2529 51.8473 53.6242 50.2736 53.6242 48.332C53.6242 46.3904 52.2529 44.8162 50.5616 44.8162C48.8702 44.8162 47.4993 46.3904 47.4993 48.332C47.4993 50.2736 48.8702 51.8473 50.5616 51.8473V51.8473Z" fill="white"/>
</svg>
