<svg width="72" height="72" viewBox="0 0 72 72" fill="none" xmlns="http://www.w3.org/2000/svg">
<rect width="72" height="72" rx="16" fill="#6D70C6"/>
<path d="M15.7726 16C13.1481 16 11 18.1481 11 20.7726V51.0855C11 53.71 13.1481 55.8581 15.7726 55.8581H57.1569C59.7814 55.8581 61.9295 53.71 61.9295 51.0855L61.929 20.7726C61.929 18.1481 59.7809 16 57.1564 16H15.7726ZM15.7726 18.2143H57.1569C58.5928 18.2143 59.7152 19.3363 59.7152 20.7726V51.0855C59.7152 52.5214 58.5932 53.6438 57.1569 53.6438L15.7726 53.6433C14.3367 53.6433 13.2143 52.5213 13.2143 51.085V20.7734C13.2143 19.3375 14.3363 18.2151 15.7726 18.2151V18.2143ZM18.5212 20.0673H18.5207C17.9093 20.0673 17.4136 20.5631 17.4136 21.1745V25.603C17.4136 26.2144 17.9093 26.7102 18.5207 26.7102H22.9493C23.5607 26.7102 24.0564 26.2144 24.0564 25.603V21.1745C24.0564 20.5631 23.5607 20.0673 22.9493 20.0673H18.5212ZM27.4584 20.0673H27.4579C26.8465 20.0673 26.3508 20.5631 26.3508 21.1745V25.603C26.3508 26.2144 26.8465 26.7102 27.4579 26.7102H31.8865C32.4979 26.7102 32.9936 26.2144 32.9936 25.603V21.1745C32.9936 20.5631 32.4979 20.0673 31.8865 20.0673H27.4584ZM19.6284 22.2816H21.8426V24.4959H19.6284V22.2816ZM28.5656 22.2816H30.7799V24.4959H28.5656V22.2816ZM43.2545 28.5311C42.8897 28.5325 42.5492 28.7139 42.3441 29.0154L29.0584 48.0292C28.8839 48.2699 28.8137 48.5699 28.8631 48.8625C28.9121 49.1556 29.0772 49.416 29.3203 49.5861C29.5635 49.7561 29.8645 49.8218 30.1566 49.7675C30.4482 49.7136 30.7062 49.5446 30.8723 49.2989L44.158 30.2852C44.4012 29.9471 44.4343 29.5018 44.2435 29.1316C44.0527 28.7614 43.6707 28.5296 43.2545 28.5316V28.5311ZM26.8827 31.1477H26.8822C26.6331 31.1497 26.3914 31.2357 26.1972 31.3919L17.9366 37.8162C17.6663 38.0263 17.5081 38.349 17.5081 38.691C17.5081 39.0331 17.6663 39.3558 17.9366 39.5659L26.7938 46.4489V46.4484C27.2772 46.8216 27.9711 46.7336 28.3458 46.2517C28.7204 45.7698 28.6344 45.0753 28.154 44.6992L20.4214 38.69L27.555 33.139C27.9361 32.8518 28.0903 32.3526 27.9376 31.9003C27.7849 31.4486 27.3598 31.1451 26.8823 31.1476L26.8827 31.1477ZM46.0116 31.1477C45.5406 31.1596 45.1288 31.468 44.985 31.9168C44.8412 32.3656 44.9974 32.8559 45.3735 33.1391L52.518 38.6901L44.7854 44.6993C44.5521 44.8792 44.4004 45.1446 44.3633 45.4367C44.3262 45.7288 44.4068 46.0239 44.5877 46.2562C44.7686 46.489 45.0345 46.6397 45.3266 46.6758C45.6192 46.7119 45.9138 46.6304 46.1456 46.4485L55.0027 39.5655V39.566C55.2731 39.3559 55.4312 39.0332 55.4312 38.6911C55.4312 38.3491 55.2731 38.0263 55.0027 37.8163L46.7318 31.3899H46.7313C46.5277 31.2268 46.2726 31.1408 46.0117 31.1477L46.0116 31.1477Z" fill="white"/>
</svg>
