<svg width="72" height="72" viewBox="0 0 72 72" fill="none" xmlns="http://www.w3.org/2000/svg">
<rect width="72" height="72" rx="16" fill="#F8763F"/>
<path d="M56.9674 11.0002H15.0322C12.8091 11.0002 11 12.8094 11 15.0325V45.6777C11 47.9008 12.8091 49.7099 15.0322 49.7099H30.9842L29.6939 56.1615H26.3227C24.9884 56.1615 23.9033 57.2466 23.9033 58.5809V60.1938C23.9033 60.6391 24.2644 61.0002 24.7098 61.0002H47.2903C47.736 61.0002 48.0967 60.6391 48.0967 60.1938V58.5809C48.0967 57.2466 47.0116 56.1615 45.6774 56.1615H42.3069L41.6628 52.9357H52.1291C53.9083 52.9357 55.3549 51.4884 55.3549 49.7099H56.9678C59.1909 49.7099 61 47.9008 61 45.6777V15.0325C61 12.8094 59.1909 11.0002 56.9678 11.0002H56.9674ZM15.0322 12.6131H56.9674C58.3017 12.6131 59.3868 13.6982 59.3868 15.0325V41.6454H55.3545V25.5164C55.3545 23.7378 53.908 22.2906 52.1287 22.2906H40.8385C39.0593 22.2906 37.6127 23.7378 37.6127 25.5164V41.6454H12.6129V15.0325C12.6129 13.6982 13.698 12.6131 15.0322 12.6131ZM48.5914 23.9035L48.3222 24.7099H44.646L44.3767 23.9035H48.5914ZM12.6129 45.6777V43.2583H37.6127V48.097H15.0322C13.698 48.097 12.6129 47.012 12.6129 45.6777ZM46.4836 58.5809V59.3873H25.516V58.5809C25.516 58.1363 25.8779 57.7744 26.3225 57.7744H45.6772C46.1222 57.7744 46.4836 58.1363 46.4836 58.5809ZM31.3381 56.1615L32.6284 49.7099H37.6125C37.6125 51.1936 38.6252 52.4343 39.9915 52.809L40.6611 56.1615H31.3381ZM53.7416 49.7099C53.7416 50.5995 53.018 51.3228 52.1287 51.3228H40.8385C39.9493 51.3228 39.2256 50.5995 39.2256 49.7099V25.5164C39.2256 24.6268 39.9493 23.9035 40.8385 23.9035H42.6767L43.2996 25.7717C43.409 26.1007 43.7168 26.3229 44.0643 26.3229H48.9029C49.2504 26.3229 49.5582 26.1007 49.6676 25.7717L50.2905 23.9035H52.1287C53.0179 23.9035 53.7416 24.6268 53.7416 25.5164L53.7416 49.7099ZM56.9674 48.097H55.3545V43.2583H59.3868V45.6777C59.3868 47.012 58.3017 48.097 56.9674 48.097ZM19.0645 19.0648C19.0645 18.6194 19.4256 18.2583 19.8709 18.2583H24.7096C25.1549 18.2583 25.516 18.6194 25.516 19.0648C25.516 19.5101 25.1549 19.8712 24.7096 19.8712H19.8709C19.4256 19.8712 19.0645 19.5101 19.0645 19.0648ZM19.0645 23.097C19.0645 22.6517 19.4256 22.2906 19.8709 22.2906H35.1934C35.6387 22.2906 35.9998 22.6517 35.9998 23.097C35.9998 23.5424 35.6387 23.9035 35.1934 23.9035H19.8709C19.4256 23.9035 19.0645 23.5424 19.0645 23.097ZM19.0645 26.3228C19.0645 25.8775 19.4256 25.5164 19.8709 25.5164H35.1934C35.6387 25.5164 35.9998 25.8775 35.9998 26.3228C35.9998 26.7682 35.6387 27.1293 35.1934 27.1293H19.8709C19.4256 27.1293 19.0645 26.7682 19.0645 26.3228ZM19.0645 29.5486C19.0645 29.1033 19.4256 28.7422 19.8709 28.7422H35.1934C35.6387 28.7422 35.9998 29.1033 35.9998 29.5486C35.9998 29.994 35.6387 30.3551 35.1934 30.3551H19.8709C19.4256 30.3551 19.0645 29.994 19.0645 29.5486ZM19.0645 32.7744C19.0645 32.3291 19.4256 31.968 19.8709 31.968H35.1934C35.6387 31.968 35.9998 32.3291 35.9998 32.7744C35.9998 33.2198 35.6387 33.5809 35.1934 33.5809H19.8709C19.4256 33.5809 19.0645 33.2198 19.0645 32.7744ZM19.0645 36.0002C19.0645 35.5549 19.4256 35.1938 19.8709 35.1938H35.1934C35.6387 35.1938 35.9998 35.5549 35.9998 36.0002C35.9998 36.4456 35.6387 36.8067 35.1934 36.8067H19.8709C19.4256 36.8067 19.0645 36.4456 19.0645 36.0002ZM48.0965 49.7099C48.0965 50.1553 47.7358 50.5164 47.2901 50.5164H45.6772C45.2315 50.5164 44.8707 50.1553 44.8707 49.7099C44.8707 49.2646 45.2315 48.9035 45.6772 48.9035H47.2901C47.7358 48.9035 48.0965 49.2646 48.0965 49.7099ZM49.4733 35.4297C49.7883 35.7448 49.7883 36.2549 49.4733 36.5703L46.2475 39.7961C46.0898 39.9534 45.8835 40.0323 45.6772 40.0323C45.4709 40.0323 45.2646 39.9534 45.107 39.7961L43.4941 38.1832C43.179 37.8682 43.179 37.358 43.4941 37.0426C43.8091 36.7276 44.3192 36.7276 44.6346 37.0426L45.6772 38.0852L48.3326 35.4297C48.6477 35.1147 49.1582 35.1147 49.4732 35.4297H49.4733ZM46.4836 31.9678C43.3712 31.9678 40.8385 34.5002 40.8385 37.613C40.8385 40.7257 43.3712 43.2581 46.4836 43.2581C49.5961 43.2581 52.1287 40.7257 52.1287 37.613C52.1287 34.5002 49.5961 31.9678 46.4836 31.9678ZM46.4836 41.6452C44.2605 41.6452 42.4514 39.8361 42.4514 37.613C42.4514 35.3898 44.2605 33.5807 46.4836 33.5807C48.7067 33.5807 50.5159 35.3898 50.5159 37.613C50.5159 39.8361 48.7067 41.6452 46.4836 41.6452Z" fill="white"/>
</svg>
