<svg width="72" height="72" viewBox="0 0 72 72" fill="none" xmlns="http://www.w3.org/2000/svg">
<rect width="72" height="72" rx="16" fill="#F8763F"/>
<path d="M24.2771 60.8409C22.401 60.8409 20.5667 60.5022 18.8265 59.8343C17.299 59.2647 15.8569 58.4232 14.5484 57.3365C14.5145 57.3141 14.4816 57.2903 14.4501 57.264C11.6318 54.9027 9.76321 51.6054 9.19034 47.9803C9.06441 47.198 9 46.3842 9 45.5637C9 44.6563 9.07728 43.7648 9.22945 42.9128C9.86296 39.3011 11.7845 36.0319 14.6396 33.7116C15.9744 32.6225 17.4574 31.7791 19.047 31.2033C22.4101 29.9693 26.3022 29.9802 29.7269 31.293C31.304 31.8812 32.7804 32.7475 34.1065 33.8652C36.9226 36.226 38.7905 39.5233 39.3635 43.1474C39.4919 43.9445 39.5543 44.7355 39.5543 45.5636C39.5543 46.4709 39.4771 47.3629 39.3249 48.215C38.6914 51.8261 36.7694 55.0948 33.9143 57.4161C32.58 58.5038 31.0974 59.3481 29.5079 59.9244C27.8535 60.5321 26.0922 60.8408 24.2771 60.8408L24.2771 60.8409ZM15.7396 55.5563C15.7734 55.5782 15.8059 55.6021 15.8364 55.6283C16.9804 56.5929 18.2408 57.3356 19.5826 57.836C22.5426 58.9714 25.8847 58.9771 28.7751 57.9176C30.1428 57.422 31.4165 56.6969 32.5647 55.76C35.0224 53.7622 36.6753 50.9509 37.2196 47.8425C37.3513 47.1112 37.4166 46.3456 37.4166 45.5642C37.4166 44.8511 37.3632 44.1713 37.253 43.4844C36.7607 40.367 35.1545 37.5334 32.7307 35.5021C31.5906 34.5409 30.3264 33.7982 28.9702 33.2925C26.0073 32.1566 22.6676 32.1514 19.7781 33.2114C18.4109 33.7065 17.1377 34.4316 15.988 35.369C13.5313 37.3663 11.8784 40.1776 11.3331 43.2864C11.2034 44.0177 11.137 44.7824 11.137 45.5637C11.137 46.2803 11.1909 46.9606 11.3007 47.6436C11.7882 50.7267 13.3629 53.5312 15.7395 55.5562L15.7396 55.5563Z" fill="white"/>
<path d="M37.4075 41.2099C37.0068 41.2099 36.6228 40.9838 36.4401 40.5974C36.1887 40.0636 36.4172 39.4268 36.9505 39.1749C37.9313 38.7122 38.8444 38.1378 39.6677 37.4662C39.8409 37.326 40.0102 37.1771 40.1696 37.0278C40.5994 36.6266 41.2758 36.6471 41.6793 37.0784C42.082 37.5091 42.06 38.1856 41.6283 38.5887C41.4332 38.7714 41.2243 38.9545 41.0158 39.1239C40.0608 39.9024 38.9998 40.5708 37.8621 41.1069C37.7157 41.177 37.5601 41.2099 37.4075 41.2099L37.4075 41.2099Z" fill="white"/>
<path d="M18.2502 33.763C17.8337 33.763 17.4383 33.5183 17.2656 33.1109C16.8167 32.0509 16.4904 30.9002 16.2948 29.6915C16.1794 28.9731 16.1193 28.2565 16.1159 27.5611C16.1064 27.4642 16.104 27.3621 16.104 27.2715C16.104 26.3642 16.1813 25.4722 16.3335 24.6201C16.967 21.009 18.8885 17.7398 21.7436 15.419C23.0774 14.3313 24.5604 13.4875 26.1505 12.9107C29.5126 11.6762 33.4057 11.6867 36.8314 13.0009C38.408 13.5886 39.8849 14.4553 41.2101 15.5735C43.3658 17.3805 44.9781 19.7361 45.8684 22.3837C45.9142 22.5225 45.9318 22.6676 45.9204 22.8092C45.9027 23.0654 45.793 23.3163 45.5927 23.5081C45.1657 23.916 44.4917 23.9022 44.0829 23.4752C43.946 23.3321 43.8534 23.1556 43.8095 22.9681C43.0382 20.7327 41.6652 18.7434 39.8348 17.2088C38.6952 16.2476 37.4315 15.5054 36.0748 14.9997C33.1129 13.8629 29.7703 13.8557 26.8827 14.9181C25.5146 15.4137 24.2408 16.1388 23.0926 17.0757C20.6359 19.0735 18.983 21.8848 18.4377 24.9931C18.3075 25.7244 18.2412 26.4901 18.2412 27.2714C18.2512 27.3306 18.2531 27.437 18.2531 27.4961C18.2531 28.0991 18.3042 28.7231 18.4048 29.3509C18.5727 30.3899 18.8513 31.375 19.2339 32.2771C19.4638 32.8209 19.2101 33.4477 18.6667 33.6782C18.5308 33.7354 18.3891 33.7631 18.2503 33.7631L18.2502 33.763Z" fill="white"/>
<path d="M11.5595 44.9519C11.3658 44.9519 11.1731 44.8994 11.0023 44.7949L9.72334 44.0135C9.34886 43.785 9.15184 43.35 9.22817 42.9173C9.86215 39.3019 11.7837 36.0327 14.6388 33.7123C14.9904 33.4266 15.4855 33.3937 15.8725 33.6308L17.3174 34.519C17.6437 34.7194 17.8369 35.0781 17.8259 35.4602L17.6599 41.1794C17.6489 41.5596 17.4367 41.9055 17.1023 42.0872L12.07 44.8221C11.9107 44.909 11.7351 44.9519 11.5596 44.9519L11.5595 44.9519ZM11.477 42.5805L11.5905 42.6497L15.5414 40.5025L15.6716 36.016L15.4178 35.86C13.4534 37.6523 12.0785 39.9964 11.477 42.5805L11.477 42.5805Z" fill="white"/>
<path d="M24.2772 60.8411C22.4011 60.8411 20.5668 60.5024 18.8266 59.8346C18.4034 59.6724 18.1287 59.2602 18.1415 58.807L18.1892 57.1141C18.1997 56.732 18.4135 56.3851 18.7498 56.2034L23.7935 53.4804C24.1289 53.2992 24.5377 53.3101 24.8621 53.5115L29.7407 56.5187C30.0637 56.7181 30.2574 57.074 30.2478 57.4537L30.2125 58.9454C30.202 59.3838 29.9244 59.7712 29.5127 59.9229C27.8536 60.5325 26.0923 60.8412 24.2772 60.8412L24.2772 60.8411ZM20.2992 58.0881C22.8205 58.8929 25.6101 58.9005 28.0931 58.1459L28.0964 58.0161L24.2653 55.6548L20.3078 57.7914L20.2992 58.0881Z" fill="white"/>
<path d="M36.8153 45.1886C36.6202 45.1886 36.426 45.1352 36.2548 45.0293L31.3757 42.022C31.0518 41.8221 30.8581 41.4648 30.8686 41.0837L31.0227 35.3645C31.0331 34.9809 31.2478 34.6322 31.586 34.4514L32.9122 33.7406C33.2976 33.5355 33.7684 33.5827 34.1033 33.8632C36.9212 36.2265 38.7893 39.5233 39.3621 43.1473C39.4332 43.5957 39.2138 44.0394 38.8145 44.2545L37.3223 45.0598C37.1639 45.1456 36.9893 45.1886 36.8152 45.1886L36.8153 45.1886ZM33.0215 40.526L36.8506 42.8864L37.1134 42.7442C36.5501 40.1529 35.2077 37.7915 33.2661 35.9755L33.1421 36.0423L33.0215 40.526Z" fill="white"/>
<path d="M24.3601 51.7505C24.1755 51.7505 23.9914 51.7028 23.8258 51.6073L19.3937 49.0485C19.0631 48.8577 18.8594 48.5047 18.8594 48.1231V43.0049C18.8594 42.6228 19.0631 42.2703 19.3937 42.0795L23.8258 39.5207C24.1564 39.3299 24.5638 39.3299 24.8944 39.5207L29.3261 42.0795C29.6567 42.2703 29.8604 42.6233 29.8604 43.0049V48.1231C29.8604 48.5052 29.6567 48.8577 29.3261 49.0485L24.8944 51.6073C24.7289 51.7028 24.5447 51.7505 24.3601 51.7505V51.7505ZM20.9965 47.5062L24.3601 49.4477L27.7232 47.5062V43.6217L24.3601 41.6802L20.9965 43.6217V47.5062ZM28.7918 48.1231H28.8023H28.7918Z" fill="white"/>
<path d="M49.8886 53.2807C48.9388 53.2807 48.052 52.901 47.3913 52.2117C43.573 48.2312 39.4844 40.3281 39.4844 34.9082C39.4844 29.4883 43.573 21.5847 47.3913 17.6036C48.7113 16.2259 51.0625 16.2249 52.3845 17.6036C56.2027 21.5845 60.2914 29.488 60.2914 34.9082C60.2914 40.3285 56.2027 48.2305 52.3845 52.2117C51.7243 52.9005 50.837 53.2803 49.8886 53.2803V53.2807ZM49.8886 18.6738C49.5265 18.6738 49.1873 18.8198 48.9335 19.0846C45.4755 22.69 41.6215 30.076 41.6215 34.9091C41.6215 39.7415 45.475 47.1274 48.9335 50.7324C49.4397 51.2615 50.3341 51.2629 50.8422 50.7329C54.3007 47.127 58.1542 39.741 58.1542 34.9084C58.1542 30.0755 54.3007 22.6888 50.8422 19.0838C50.5889 18.819 50.2497 18.6731 49.8886 18.6731L49.8886 18.6738Z" fill="white"/>
<path d="M49.7336 40.4052C49.143 40.4052 48.665 39.9267 48.665 39.3366V29.8641C48.665 29.274 49.143 28.7955 49.7336 28.7955C50.3242 28.7955 50.8022 29.274 50.8022 29.8641V39.3366C50.8022 39.9267 50.3242 40.4052 49.7336 40.4052Z" fill="white"/>
<path d="M56.3891 26.3977C56.359 26.3977 56.3275 26.3967 56.2961 26.3934C52.6544 26.0781 47.2653 26.0628 43.483 26.3591C42.902 26.3982 42.3801 25.9655 42.3343 25.3764C42.2885 24.7882 42.7288 24.2739 43.3161 24.2281C47.2044 23.9266 52.74 23.94 56.4796 24.2649C57.0683 24.3154 57.5033 24.8335 57.4523 25.4217C57.4041 25.9774 56.938 26.3977 56.389 26.3977L56.3891 26.3977Z" fill="white"/>
<path d="M49.7576 45.1909C47.3462 45.1909 44.9343 45.106 42.9861 44.9352C42.3974 44.8837 41.9633 44.3656 42.0143 43.7775C42.0663 43.1897 42.5987 42.7499 43.1716 42.8067C46.9932 43.1411 52.8923 43.1316 56.6075 42.7838C57.1866 42.7256 57.7156 43.1606 57.771 43.7479C57.8254 44.3361 57.3932 44.8565 56.8059 44.9114C54.8162 45.0979 52.2869 45.1909 49.7572 45.1909L49.7576 45.1909Z" fill="white"/>
<path d="M52.1015 32.1171H47.3659C46.7754 32.1171 46.2974 31.6386 46.2974 31.0485C46.2974 30.4585 46.7754 29.98 47.3659 29.98H52.1015C52.692 29.98 53.17 30.4585 53.17 31.0485C53.17 31.6386 52.6925 32.1171 52.1015 32.1171Z" fill="white"/>
<path d="M52.1015 35.6692H47.3659C46.7754 35.6692 46.2974 35.1908 46.2974 34.6007C46.2974 34.0106 46.7754 33.5321 47.3659 33.5321H52.1015C52.692 33.5321 53.17 34.0106 53.17 34.6007C53.17 35.1912 52.6925 35.6692 52.1015 35.6692Z" fill="white"/>
<path d="M52.1015 39.222H47.3659C46.7754 39.222 46.2974 38.7435 46.2974 38.1534C46.2974 37.5633 46.7754 37.0848 47.3659 37.0848H52.1015C52.692 37.0848 53.17 37.5633 53.17 38.1534C53.17 38.7435 52.6925 39.222 52.1015 39.222Z" fill="white"/>
<path d="M42.3805 28.5657H17.1843C16.5942 28.5657 16.1157 28.0872 16.1157 27.4972C16.1157 26.9071 16.5942 26.4286 17.1843 26.4286H42.3805C42.9711 26.4286 43.449 26.9071 43.449 27.4972C43.449 28.0872 42.9711 28.5657 42.3805 28.5657Z" fill="white"/>
<path d="M31.0144 34.1173C30.4243 34.1173 29.9458 33.6388 29.9458 33.0487V13.0695C29.9458 12.4795 30.4243 12.001 31.0144 12.001C31.6045 12.001 32.0829 12.4795 32.0829 13.0695V33.0487C32.0829 33.6388 31.6045 34.1173 31.0144 34.1173Z" fill="white"/>
<path d="M26.9772 32.685C26.9337 32.685 26.8899 32.6826 26.846 32.6773C26.2602 32.6058 25.8432 32.0729 25.9148 31.4871C26.8837 23.5459 22.3107 16.3306 22.2649 16.2585C21.9458 15.7624 22.0884 15.1012 22.5841 14.7821C23.0788 14.461 23.7409 14.6032 24.06 15.0998C24.2666 15.4189 29.1004 23.02 28.0357 31.7462C27.9704 32.2881 27.5095 32.685 26.9772 32.685L26.9772 32.685Z" fill="white"/>
<path d="M35.5247 36.8524C35.0348 36.8524 34.5935 36.5137 34.4829 36.0156C32.0547 25.0885 37.2592 15.559 37.4816 15.1596C37.7687 14.6425 38.4185 14.4589 38.9342 14.7456C39.4499 15.0318 39.6355 15.682 39.3497 16.1982C39.2996 16.2893 34.3222 25.4385 36.5695 35.5533C36.6968 36.1296 36.3338 36.7001 35.7576 36.828C35.6798 36.8447 35.6016 36.8528 35.5248 36.8528L35.5247 36.8524Z" fill="white"/>
</svg>
